Coordinates
version=1
nRows=16
nColumns=42
inDegrees=yes

Units are S.I. units (second, meters, Newtons, ...)
If the header above contains a line with 'inDegrees', this indicates whether rotational values are in degrees (yes) or radians (no).

endheader
time	pelvis_tilt	pelvis_list	pelvis_rotation	pelvis_tx	pelvis_ty	pelvis_tz	hip_flexion_r	hip_adduction_r	hip_rotation_r	knee_angle_r	knee_adduction_r	knee_angle_r_beta	ankle_angle_r	subtalar_angle_r	mtp_angle_r	hip_flexion_l	hip_adduction_l	hip_rotation_l	knee_angle_l	knee_adduction_l	knee_angle_l_beta	ankle_angle_l	subtalar_angle_l	mtp_angle_l	lumbar_extension	lumbar_bending	lumbar_rotation	arm_flex_r	arm_add_r	arm_rot_r	elbow_flex_r	pro_sup_r	wrist_flex_r	wrist_dev_r	arm_flex_l	arm_add_l	arm_rot_l	elbow_flex_l	pro_sup_l	wrist_flex_l	wrist_dev_l
      6.50000000	      1.93767677	    -10.34235894	    -13.70807595	     -0.30374528	      0.84762166	      0.28172239	     -2.41519872	      6.40994513	    -17.78225203	     20.70697576	     -3.02678487	      0.36140491	     15.55371901	     22.64958378	     -7.50005565	     14.23893809	    -18.50441497	    -28.24570250	     34.01231709	     -5.19887823	      0.59362692	     17.57254751	     26.73544985	     -7.50005565	    -28.84626664	      7.30791260	      4.15273423	     -8.20501588	     -1.99824108	    -11.65274289	    103.82646029	     90.00000001	      0.00000000	      0.00000000	      3.29377678	     -7.99002128	    -18.11169165	     47.70386727	     90.00000001	      0.00000000	      0.00000000
      6.51000000	      1.71766228	    -10.46173441	    -13.95556990	     -0.30113153	      0.84906631	      0.27972362	     -2.27582555	      6.37789011	    -17.87640825	     20.74896260	     -2.93775486	      0.36213771	     15.29637472	     22.48730382	     -7.50005544	     13.80772056	    -18.56719431	    -28.73787653	     33.44571850	     -4.92468954	      0.58373791	     17.55724124	     26.74326791	     -7.50005544	    -28.65109385	      7.51242799	      4.03324872	     -8.20077807	     -1.84282345	    -11.57680763	    104.04952706	     90.00000001	      0.00000000	      0.00000000	      3.16448755	     -8.08862080	    -18.13638791	     47.68756391	     90.00000001	      0.00000000	      0.00000000
      6.52000000	      2.60309791	    -10.19950613	    -14.81821082	     -0.29812324	      0.85236590	      0.27823227	     -3.18199176	      5.55384349	    -17.10364725	     20.95527598	     -2.83707929	      0.36573856	     13.82846693	     21.54619434	     -7.50005387	     11.30751107	    -17.76789604	    -30.74885307	     31.49428016	     -4.89444330	      0.54967888	     16.80555201	     28.19871452	     -7.50005387	    -29.57559893	      6.70017438	      4.60608550	     -8.25278437	     -1.93514934	    -11.35409237	    104.32614734	     90.00000001	      0.00000000	      0.00000000	      3.32529016	     -8.14112068	    -18.16864229	     47.87348592	     90.00000001	      0.00000000	      0.00000000
      6.53000000	      2.32196492	    -10.35774349	    -15.09200949	     -0.29566233	      0.85360723	      0.27639196	     -2.86615954	      5.66119903	    -17.17409545	     21.15971011	     -3.00039153	      0.36930661	     13.49748341	     21.40362261	     -7.50005358	     10.90665189	    -17.89991106	    -31.16757040	     30.86942170	     -4.48558421	      0.53877305	     16.83824463	     28.30679297	     -7.50005358	    -29.32127066	      6.94363478	      4.55676980	     -8.25166989	     -1.81664332	    -11.22887219	    104.62461338	     90.00000001	      0.00000000	      0.00000000	      3.17073595	     -8.26254075	    -18.19750429	     47.88041157	     90.00000001	      0.00000000	      0.00000000
      6.54000000	      2.20113612	    -10.46113293	    -15.62813584	     -0.29332784	      0.85514497	      0.27487201	     -2.54411546	      5.69390786	    -17.06837871	     21.63856958	     -3.38256636	      0.37766428	     12.67366315	     21.16759870	     -7.50005317	     10.05755159	    -17.90306956	    -31.82198342	     29.85690016	     -3.99340560	      0.52110121	     16.73640426	     28.67490996	     -7.50005317	    -29.26830904	      6.96404880	      4.86393095	     -8.34219987	     -1.86786063	    -11.01483030	    104.93264965	     90.00000001	      0.00000000	      0.00000000	      3.17087508	     -8.30819094	    -18.22088304	     48.01953559	     90.00000001	      0.00000000	      0.00000000
      6.55000000	      2.50706780	    -10.34962220	    -16.20528442	     -0.29079174	      0.85715112	      0.27331506	     -2.67809105	      5.30972308	    -16.56751734	     22.08379583	     -3.54893957	      0.38543495	     11.61851641	     20.70875543	     -7.50005249	      8.66268001	    -17.50351690	    -33.02246474	     28.65895113	     -3.61919463	      0.50019306	     16.27009919	     29.54824307	     -7.50005249	    -29.58478423	      6.58464796	      5.25169050	     -8.40880219	     -1.92711210	    -10.87024559	    105.16903936	     90.00000001	      0.00000000	      0.00000000	      3.27252900	     -8.36292196	    -18.24826586	     48.22046457	     90.00000001	      0.00000000	      0.00000000
      6.56000000	      2.37452269	    -10.47434787	    -16.32520814	     -0.28819354	      0.85830664	      0.27127270	     -2.52952068	      5.32364266	    -16.43386209	     22.27476206	     -3.58980574	      0.38876794	     11.35060056	     20.53843932	     -7.50005225	      8.20568941	    -17.46825844	    -33.53015713	     28.04870609	     -3.38849662	      0.48954227	     16.20080898	     29.69990890	     -7.50005225	    -29.44502366	      6.85416940	      5.11380603	     -8.37858049	     -1.80559760	    -10.84851273	    105.36382965	     90.00000001	      0.00000000	      0.00000000	      3.15266725	     -8.49632095	    -18.27463084	     48.24386164	     90.00000001	      0.00000000	      0.00000000
      6.57000000	      3.01537196	    -10.29650575	    -16.92621615	     -0.28533872	      0.86061624	      0.26966669	     -3.07707787	      4.71763607	    -15.43425298	     22.63017048	     -3.50890189	      0.39497099	     10.39271931	     19.30910607	     -7.50005067	      6.33127471	    -16.68217646	    -34.92645072	     26.43177169	     -3.18355216	      0.46132144	     15.31307118	     31.09059548	     -7.50005067	    -30.03370925	      6.31325206	      5.47574077	     -8.44208350	     -1.87418468	    -10.81630421	    105.50244209	     90.00000001	      0.00000000	      0.00000000	      3.17824760	     -8.57195277	    -18.25049164	     48.53480887	     90.00000001	      0.00000000	      0.00000000
      6.58000000	      2.88245791	    -10.41149915	    -17.19114791	     -0.28306601	      0.86159445	      0.26800649	     -2.74798460	      4.84151616	    -15.17712325	     23.08455920	     -3.86408972	      0.40290156	      9.89515062	     19.00502783	     -7.50005014	      5.79836203	    -16.65282497	    -35.22413179	     25.75240324	     -2.72730067	      0.44946423	     15.31465201	     31.23337589	     -7.50005014	    -29.93299900	      6.46322492	      5.61225380	     -8.44290208	     -1.82915093	    -10.72737598	    105.64892656	     90.00000001	      0.00000000	      0.00000000	      3.19446293	     -8.66383792	    -18.26080022	     48.69217862	     90.00000001	      0.00000000	      0.00000000
      6.59000000	      3.06168010	    -10.34595906	    -17.52336702	     -0.28047947	      0.86283998	      0.26632855	     -2.73876692	      4.60035057	    -14.49100367	     23.56662890	     -3.97268273	      0.41131527	      9.25155014	     18.21007916	     -7.50004920	      4.83864955	    -16.23670471	    -35.76615207	     24.84404080	     -2.32520976	      0.43361031	     14.97571613	     31.44267190	     -7.50004920	    -30.04438870	      6.30854812	      5.75922968	     -8.49028655	     -1.79783667	    -10.74943959	    105.72779705	     90.00000001	      0.00000000	      0.00000000	      3.17464340	     -8.76693286	    -18.26640535	     48.90932771	     90.00000001	      0.00000000	      0.00000000
      6.60000000	      3.28069748	    -10.35463690	    -17.71305129	     -0.27792926	      0.86406478	      0.26445727	     -2.86103387	      4.46053982	    -13.52889110	     23.93545569	     -3.92101843	      0.41775251	      8.75855222	     16.68947736	     -7.50004713	      3.94911377	    -15.78788586	    -36.10362784	     23.93545411	     -2.10358269	      0.41775248	     14.51232041	     31.44097165	     -7.50004713	    -30.22104579	      6.28501431	      5.79668702	     -8.44528030	     -1.74310875	    -10.78515216	    105.73304925	     90.00000001	      0.00000000	      0.00000000	      3.16563417	     -8.87933830	    -18.21125690	     49.09670392	     90.00000001	      0.00000000	      0.00000000
      6.61000000	      3.38531237	    -10.33965208	    -17.92010618	     -0.27536009	      0.86489634	      0.26278016	     -2.76026195	      4.38107199	    -12.75477975	     24.47612902	     -4.09412865	      0.42718904	      8.24624188	     15.68745515	     -7.50004548	      3.24579882	    -15.45606763	    -36.27569345	     23.28232663	     -1.73347866	      0.40635326	     14.37646412	     31.29787467	     -7.50004548	    -30.23322526	      6.26089575	      5.87723147	     -8.50183497	     -1.71184523	    -10.86146559	    105.71344346	     90.00000001	      0.00000000	      0.00000000	      3.12852419	     -8.99629116	    -18.21895298	     49.28721920	     90.00000001	      0.00000000	      0.00000000
      6.62000000	      3.41539323	    -10.44502219	    -17.90050302	     -0.27274854	      0.86544162	      0.26093145	     -2.63322569	      4.51370214	    -12.35113815	     24.96071977	     -4.41980985	      0.43564674	      8.00195041	     15.51344573	     -7.50004521	      2.87348050	    -15.31348544	    -36.27434855	     23.01816696	     -1.57084586	      0.40174280	     14.41964488	     31.24633433	     -7.50004521	    -30.18007194	      6.48992518	      5.77383712	     -8.53543543	     -1.66366266	    -10.92261713	    105.66288183	     90.00000001	      0.00000000	      0.00000000	      3.06651858	     -9.12544370	    -18.24350903	     49.34834711	     90.00000001	      0.00000000	      0.00000000
      6.63000000	      3.64795759	    -10.30073035	    -18.23562696	     -0.27013062	      0.86619907	      0.25948604	     -2.53129639	      4.23362584	    -11.49441970	     25.73959054	     -4.58898180	      0.44924060	      7.50108994	     14.32962939	     -7.50004444	      1.93807742	    -14.74910860	    -36.43846353	     22.14922574	     -1.10049127	      0.38657692	     14.33072857	     31.06238017	     -7.50004444	    -30.25979190	      6.22276202	      6.00308981	     -8.65745402	     -1.62517536	    -11.07661865	    105.50370411	     90.00000001	      0.00000000	      0.00000000	      3.02712174	     -9.21589064	    -18.24726984	     49.67684699	     90.00000001	      0.00000000	      0.00000000
      6.64000000	      3.88932052	    -10.27607016	    -18.31363627	     -0.26771398	      0.86697542	      0.25777460	     -2.64141806	      4.17958353	     -9.87226427	     26.25876504	     -4.36494520	      0.45830191	      6.88519203	     11.36418064	     -7.50004178	      1.23842690	    -14.26995429	    -36.28081860	     21.50551713	     -0.87929779	      0.37534208	     13.85920905	     30.27291355	     -7.50004178	    -30.40585702	      6.17602432	      5.99786802	     -8.63762435	     -1.55611898	    -11.17663413	    105.33598327	     90.00000001	      0.00000000	      0.00000000	      3.05589666	     -9.37645947	    -18.14334391	     49.84743067	     90.00000001	      0.00000000	      0.00000000
      6.65000000	      4.03914774	    -10.33534669	    -18.35209899	     -0.26511827	      0.86736635	      0.25614615	     -2.53191602	      4.25279731	     -9.32030358	     26.97945007	     -4.69873718	      0.47088023	      6.56672266	     10.95939030	     -7.50004131	      0.71864900	    -14.04297280	    -36.22176066	     21.22001506	     -0.66545579	      0.37035913	     14.06202177	     30.21668523	     -7.50004131	    -30.43206978	      6.27514140	      6.00370700	     -8.69086300	     -1.50652775	    -11.33826822	    105.15169154	     90.00000001	      0.00000000	      0.00000000	      3.02875284	     -9.46448824	    -18.17388584	     49.99832500	     90.00000001	      0.00000000	      0.00000000
